<svg width="122" height="104" fill="none" xmlns="http://www.w3.org/2000/svg"><path d="M60.5 0L29 18.19v36.378l31.5 18.19L92 54.568V18.19L60.5 0zm24.537 50.59L60.453 64.752 35.916 50.59V22.168L60.5 7.958l24.584 14.21V50.59h-.047z" fill="#0F0F0F"/><path d="M79.163 25.437V47.32l-12.931 7.626V42.868H54.769v12.08L41.837 47.32V25.437l12.931-7.627v12.411h11.464v-12.41l12.931 7.626zm-63.852 78.252h-3.653v-7.15H3.614v7.15H0V86.707h3.614v6.684h8.006v-6.684h3.653v16.982h.038zm19.819 0H23.122V86.707H35.13v3.186h-8.394v3.575h8.239v3.187h-8.239v3.847h8.394v3.187zm15.507.311c-2.565 0-4.741-.816-6.451-2.448-1.71-1.633-2.604-3.731-2.604-6.335 0-2.603.855-4.702 2.604-6.334 1.71-1.632 3.886-2.448 6.45-2.448 3.187 0 5.558 1.399 7.112 4.158l-3.109 1.515a5.12 5.12 0 00-1.632-1.787 4.33 4.33 0 00-2.37-.7c-1.555 0-2.837.544-3.809 1.594-1.01 1.049-1.515 2.37-1.515 4.002 0 1.632.505 2.954 1.515 4.003 1.01 1.049 2.293 1.593 3.809 1.593a4.33 4.33 0 002.37-.699c.739-.467 1.283-1.05 1.632-1.788l3.11 1.516C56.115 102.6 53.745 104 50.636 104zm21.295-.311h-3.653V89.893h-4.974v-3.186h13.562v3.186h-4.935v13.796zm19.781.311c-2.565 0-4.703-.816-6.373-2.487-1.672-1.671-2.526-3.77-2.526-6.296 0-2.565.854-4.663 2.526-6.295 1.67-1.671 3.808-2.487 6.373-2.487 2.565 0 4.702.816 6.373 2.487 1.671 1.632 2.526 3.77 2.526 6.334 0 2.565-.855 4.663-2.526 6.334-1.671 1.594-3.808 2.41-6.373 2.41zm-3.731-4.78c.933 1.049 2.176 1.593 3.73 1.593 1.555 0 2.799-.544 3.731-1.593.933-1.05 1.438-2.37 1.438-4.003 0-1.632-.466-2.953-1.438-4.002-.932-1.05-2.215-1.594-3.73-1.594-1.555 0-2.798.544-3.731 1.594-.933 1.049-1.399 2.37-1.399 4.002 0 1.594.466 2.915 1.399 4.003zm33.382 4.469h-4.158l-3.342-6.024h-2.642v6.024h-3.615V86.707h7.967c1.749 0 3.148.505 4.158 1.515 1.011 1.01 1.555 2.332 1.555 3.964 0 1.399-.35 2.526-1.089 3.38-.738.856-1.593 1.4-2.642 1.672l3.808 6.451zm-6.334-9.21c.738 0 1.36-.195 1.826-.622.467-.427.7-.972.7-1.671 0-.7-.233-1.244-.7-1.671-.466-.427-1.088-.622-1.826-.622h-3.808v4.586h3.808z" fill="#0F0F0F"/></svg>